<?xml version="1.0" standalone="no"?>
<!DOCTYPE svg PUBLIC "-//W3C//DTD SVG 20010904//EN"
 "http://www.w3.org/TR/2001/REC-SVG-20010904/DTD/svg10.dtd">
<svg version="1.0" xmlns="http://www.w3.org/2000/svg"
 width="2251.000000pt" height="2251.000000pt" viewBox="0 0 2251.000000 2251.000000"
 preserveAspectRatio="xMidYMid meet">

<g transform="translate(0.000000,2251.000000) scale(0.100000,-0.100000)"
fill="#000000" stroke="none">
<path d="M14025 15380 c-94 -30 -171 -98 -220 -194 -39 -76 -40 -81 -40 -180
0 -94 2 -106 33 -168 75 -153 246 -248 406 -224 l46 7 0 384 c0 340 -2 384
-16 389 -32 12 -151 4 -209 -14z"/>
<path d="M9150 15264 c-25 -2 -101 -9 -170 -14 -938 -82 -1883 -554 -2529
-1263 -583 -642 -923 -1384 -1027 -2247 -22 -177 -25 -654 -6 -830 122 -1130
680 -2118 1577 -2789 479 -359 1053 -611 1640 -720 159 -29 347 -53 356 -44
19 21 1131 1645 1128 1648 -2 2 -24 0 -49 -5 -101 -19 -340 -32 -460 -26 -518
29 -960 185 -1360 482 -131 97 -363 328 -458 454 -485 650 -599 1453 -311
2191 312 800 1057 1367 1940 1475 179 22 501 15 674 -15 677 -115 1251 -487
1617 -1046 127 -192 230 -422 289 -637 13 -49 27 -88 30 -88 4 0 32 35 62 78
244 349 564 636 956 861 11 7 5 46 -29 217 -39 193 -42 217 -36 314 18 323
168 591 492 881 72 65 133 128 144 150 38 74 19 156 -56 238 -84 94 -184 94
-316 2 -24 -16 -90 -70 -147 -119 -225 -195 -448 -280 -705 -269 -199 8 -287
49 -531 251 -233 192 -418 311 -680 440 -444 218 -913 355 -1405 411 -130 15
-537 27 -630 19z"/>
<path d="M9010 12687 c0 -3 107 -142 237 -309 130 -166 473 -606 762 -977 289
-370 602 -771 694 -890 93 -119 171 -218 173 -220 2 -2 4 468 4 1046 l0 1051
-132 65 c-160 79 -290 128 -441 166 -229 59 -289 64 -814 69 -266 2 -483 1
-483 -1z"/>
<path d="M11788 10772 c-47 -70 -113 -165 -145 -212 -158 -227 -1077 -1564
-1880 -2732 -161 -234 -293 -430 -293 -434 0 -12 309 5 472 26 236 30 451 78
643 143 391 133 798 370 1193 694 l102 84 0 1280 c0 703 -1 1279 -2 1279 -2 0
-42 -58 -90 -128z"/>
<path d="M13072 9697 c-40 -92 -169 -303 -261 -425 -91 -121 -334 -382 -514
-552 -89 -85 -100 -98 -94 -122 7 -26 30 -57 421 -558 262 -337 352 -443 463
-551 204 -199 473 -379 733 -490 86 -37 296 -109 316 -109 12 0 14 119 14 738
l0 737 -175 230 c-97 127 -329 432 -518 679 -188 247 -346 455 -352 462 -8 10
-16 0 -33 -39z"/>
</g>
</svg>
