<?xml version="1.0" standalone="no"?>
<!DOCTYPE svg PUBLIC "-//W3C//DTD SVG 20010904//EN"
 "http://www.w3.org/TR/2001/REC-SVG-20010904/DTD/svg10.dtd">
<svg version="1.0" xmlns="http://www.w3.org/2000/svg"
 width="1167.000000pt" height="1006.000000pt" viewBox="0 0 1167.000000 1006.000000"
 preserveAspectRatio="xMidYMid meet">

<g transform="translate(0.000000,1006.000000) scale(0.100000,-0.100000)"
fill="#000000" stroke="none">
<path d="M10110 9869 c-133 -20 -271 -140 -325 -284 -22 -60 -26 -214 -6 -266
59 -155 160 -251 314 -299 42 -13 191 -4 181 11 -3 5 5 9 18 9 45 0 52 22 26
77 -6 12 -7 34 -3 50 4 15 6 132 5 259 -1 156 2 238 9 252 8 15 9 39 2 79 -8
47 -7 60 5 69 21 16 5 22 -136 48 -14 2 -54 0 -90 -5z"/>
<path d="M4395 9730 c-49 -5 -126 -13 -170 -20 -44 -6 -109 -15 -145 -19 -36
-5 -101 -17 -145 -26 -44 -9 -100 -21 -125 -25 -25 -5 -72 -16 -105 -26 -33
-9 -76 -20 -95 -24 -91 -20 -385 -120 -477 -161 -24 -10 -45 -19 -49 -19 -3 0
-30 -11 -60 -25 -30 -14 -57 -25 -60 -25 -11 0 -324 -160 -404 -207 -200 -116
-491 -314 -550 -373 -3 -3 -37 -31 -77 -62 -174 -139 -378 -340 -568 -559
-172 -198 -371 -485 -515 -744 -58 -104 -190 -373 -190 -387 0 -8 -4 -18 -9
-24 -30 -33 -172 -453 -221 -652 -17 -70 -35 -143 -40 -162 -29 -115 -67 -382
-90 -641 -34 -388 17 -979 120 -1371 6 -21 15 -57 21 -80 6 -24 21 -78 35
-120 13 -43 24 -86 24 -97 0 -11 4 -22 9 -25 5 -3 11 -16 14 -28 6 -27 62
-188 84 -238 8 -19 18 -44 23 -55 110 -265 247 -525 390 -740 113 -170 149
-220 244 -338 418 -523 920 -934 1486 -1216 58 -29 112 -57 120 -62 8 -4 53
-25 100 -45 47 -20 99 -42 115 -50 163 -70 532 -187 675 -214 25 -4 77 -15
115 -25 39 -9 97 -20 130 -25 33 -5 103 -15 155 -23 52 -8 118 -18 146 -21 61
-8 32 -40 250 279 42 61 131 191 199 290 68 99 163 236 210 305 46 69 118 172
157 230 40 58 116 168 168 244 52 77 152 222 223 323 70 100 127 190 127 199
0 13 -6 15 -27 10 -81 -17 -315 -37 -438 -38 -223 -1 -482 33 -695 89 -30 8
-68 18 -85 23 -268 71 -617 246 -871 436 -76 57 -248 204 -264 226 -3 4 -35
38 -71 75 -217 226 -415 537 -529 828 -4 11 -15 38 -23 60 -27 68 -60 184 -97
335 -15 60 -30 161 -45 290 -45 381 18 808 177 1209 179 452 544 899 963 1178
142 94 139 93 260 156 78 40 221 106 275 126 19 7 44 17 55 22 106 45 388 115
555 138 328 45 656 33 970 -35 63 -14 126 -29 140 -34 14 -4 52 -16 85 -25
148 -41 391 -144 525 -222 100 -58 117 -69 146 -90 17 -13 34 -23 38 -23 14 0
198 -142 286 -220 123 -109 210 -201 310 -325 78 -98 200 -268 200 -280 0 -3
15 -29 34 -58 43 -68 113 -214 163 -342 37 -94 58 -157 98 -297 9 -32 22 -58
29 -58 7 0 36 35 66 78 188 271 439 532 701 727 113 84 243 172 314 211 81 44
85 48 85 72 0 13 -7 53 -15 90 -59 257 -68 326 -62 491 2 86 9 170 15 186 6
17 16 50 23 75 14 56 18 66 67 171 93 201 249 391 505 614 124 107 154 197
101 303 -36 72 -130 157 -183 166 -111 17 -205 -29 -391 -195 -146 -130 -329
-235 -500 -287 -59 -18 -212 -42 -271 -42 -115 0 -260 36 -359 89 -77 41 -121
73 -300 220 -239 197 -475 349 -745 480 -131 64 -233 111 -240 111 -2 0 -28
11 -57 23 -29 13 -69 30 -88 36 -19 7 -44 17 -55 21 -85 35 -312 110 -332 110
-7 0 -21 4 -31 10 -15 8 -105 32 -227 61 -83 19 -333 66 -420 78 -38 5 -106
15 -150 22 -96 14 -732 21 -860 9z"/>
<path d="M4400 6804 c0 -4 24 -37 53 -73 29 -36 65 -84 82 -106 16 -22 32 -42
35 -45 3 -3 53 -66 110 -140 101 -129 428 -548 454 -581 7 -8 46 -58 86 -110
41 -52 77 -96 80 -99 3 -3 52 -66 110 -140 57 -74 112 -141 122 -148 10 -7 18
-17 18 -22 0 -5 32 -49 71 -97 39 -48 73 -95 77 -103 3 -8 13 -20 22 -27 9 -6
56 -63 104 -125 48 -62 105 -135 127 -163 22 -27 58 -72 78 -100 21 -27 50
-63 65 -78 14 -15 51 -63 83 -105 31 -42 66 -86 77 -97 12 -11 29 -31 39 -45
l18 -25 17 22 c9 12 22 19 27 15 12 -9 15 -72 4 -72 -5 0 -9 5 -9 10 0 6 -4
10 -10 10 -18 0 -11 -16 25 -56 19 -21 34 -33 35 -26 0 6 5 12 11 12 6 0 8 -9
4 -20 -5 -16 4 -31 39 -64 25 -24 46 -50 46 -59 0 -20 11 -22 29 -4 10 10 15
8 27 -7 10 -15 17 -17 25 -9 9 9 5 18 -12 35 -13 13 -35 45 -49 71 -14 27 -32
56 -41 66 -9 9 -22 27 -28 39 -10 19 -9 22 7 22 10 0 27 6 38 14 15 12 17 17
7 27 -7 7 -13 29 -13 49 0 29 8 45 35 73 19 20 35 42 35 50 0 8 6 20 14 27 8
6 12 19 9 28 -14 43 -34 80 -53 97 -20 18 -20 25 -20 752 l0 734 26 24 27 25
-24 19 c-13 11 -35 22 -49 25 -36 8 -54 22 -45 36 11 17 84 6 129 -20 43 -24
56 -25 56 -6 0 8 -13 17 -30 21 -16 4 -32 11 -35 16 -4 5 -14 9 -24 9 -20 0
-47 52 -36 69 3 6 2 11 -3 11 -5 0 -19 9 -32 20 -16 14 -27 17 -34 10 -6 -6
-22 4 -46 30 -21 23 -46 40 -58 40 -12 0 -22 4 -22 9 0 8 -32 23 -57 25 -6 1
-20 9 -30 19 -11 9 -23 17 -28 17 -4 0 -31 11 -59 24 -28 13 -75 29 -103 36
-29 6 -53 16 -53 20 0 5 -15 11 -32 15 -18 3 -42 10 -53 15 -11 4 -47 13 -80
20 -33 6 -78 16 -100 22 -74 19 -150 29 -280 37 -151 11 -1035 14 -1035 5z
m1940 -364 c0 -5 -6 -10 -14 -10 -8 0 -18 5 -21 10 -3 6 3 10 14 10 12 0 21
-4 21 -10z m53 -34 c6 -16 -2 -28 -14 -20 -12 7 -11 34 0 34 5 0 11 -6 14 -14z
m30 -134 c10 -10 15 -21 12 -24 -10 -9 -65 4 -65 16 0 30 29 34 53 8z m117
-12 c0 -5 -7 -10 -16 -10 -8 0 -12 5 -9 10 3 6 10 10 16 10 5 0 9 -4 9 -10z
m-100 -1560 c0 -5 -11 -10 -25 -10 -14 0 -25 5 -25 10 0 6 11 10 25 10 14 0
25 -4 25 -10z m0 -316 c0 -14 -3 -14 -15 -4 -8 7 -15 14 -15 16 0 2 7 4 15 4
8 0 15 -7 15 -16z"/>
<path d="M6570 6374 c0 -8 9 -14 20 -14 11 0 20 4 20 9 0 5 -9 11 -20 14 -13
3 -20 0 -20 -9z"/>
<path d="M7857 4994 c-8 -8 1 -24 14 -24 5 0 9 7 9 15 0 15 -12 20 -23 9z"/>
<path d="M7790 4935 c0 -10 7 -15 18 -13 21 4 19 22 -2 26 -10 2 -16 -3 -16
-13z"/>
<path d="M7690 4840 c0 -5 5 -10 10 -10 6 0 10 5 10 10 0 6 -4 10 -10 10 -5 0
-10 -4 -10 -10z"/>
<path d="M7732 4808 c-7 -7 -12 -24 -12 -39 0 -15 -6 -30 -12 -32 -7 -3 1 -6
18 -6 26 -1 33 3 37 25 5 29 -1 64 -12 64 -4 0 -12 -5 -19 -12z"/>
<path d="M7665 4720 c-4 -6 -20 -8 -42 -4 l-36 7 6 -36 c6 -36 -8 -61 -22 -39
-4 7 -17 -2 -34 -23 -30 -38 -34 -55 -12 -55 20 0 19 -24 -1 -40 -13 -11 -16
-10 -21 8 -4 18 -7 19 -19 7 -8 -8 -13 -18 -12 -22 4 -12 -24 -46 -54 -66 -16
-10 -28 -25 -28 -35 0 -19 -45 -72 -60 -72 -6 0 -10 -8 -10 -19 0 -10 -6 -24
-14 -30 -7 -6 -40 -47 -72 -91 -146 -200 -166 -225 -180 -233 -8 -4 -14 -13
-15 -20 0 -7 -16 -32 -35 -57 -19 -25 -41 -59 -49 -76 -7 -17 -22 -37 -31 -45
-9 -8 -23 -29 -31 -46 -7 -18 -17 -33 -22 -33 -5 0 -12 -15 -15 -34 -4 -19
-18 -45 -31 -58 -14 -13 -25 -27 -25 -31 0 -4 -5 -13 -10 -20 -6 -7 -22 -30
-37 -52 -14 -22 -46 -69 -72 -105 -25 -36 -70 -102 -101 -146 -30 -45 -100
-146 -155 -225 -55 -79 -108 -155 -117 -169 -10 -14 -53 -77 -97 -140 -44 -63
-111 -159 -148 -213 -37 -54 -81 -118 -98 -141 -16 -24 -53 -76 -80 -117 -46
-68 -103 -150 -288 -420 -36 -52 -73 -101 -81 -108 -9 -8 -16 -17 -16 -22 0
-7 -21 -39 -226 -334 -257 -370 -363 -529 -358 -537 6 -9 241 -1 359 12 50 6
131 15 180 21 50 6 124 17 165 25 41 8 98 19 125 25 128 25 338 82 430 118 11
5 40 15 65 24 136 47 320 132 460 211 36 20 79 44 95 52 17 8 41 22 55 32 14
9 41 26 59 37 78 46 208 136 239 164 18 17 38 31 44 31 7 0 32 17 57 38 25 21
75 58 111 84 63 45 222 183 228 200 2 4 -2 8 -9 8 -7 0 -2 11 11 25 14 15 35
25 51 25 26 0 28 3 23 29 -5 23 -2 30 15 36 25 8 27 18 6 35 -8 7 -15 18 -15
25 0 7 -7 15 -15 19 -13 5 -15 141 -15 1140 0 999 2 1135 15 1140 11 4 15 23
15 79 0 40 4 77 10 83 14 14 18 176 3 181 -6 2 -14 -1 -18 -7z m-85 -120 c0
-11 -7 -20 -15 -20 -8 0 -15 9 -15 20 0 11 7 20 15 20 8 0 15 -9 15 -20z m48
-2512 c-6 -18 -28 -21 -28 -4 0 9 7 16 16 16 9 0 14 -5 12 -12z m12 -66 c0 -5
-9 -17 -20 -27 -20 -18 -20 -17 -20 8 0 20 5 27 20 27 11 0 20 -4 20 -8z
m-183 -128 c-3 -3 -12 -4 -19 -1 -8 3 -5 6 6 6 11 1 17 -2 13 -5z m63 -24 c0
-5 -4 -10 -10 -10 -5 0 -10 5 -10 10 0 6 5 10 10 10 6 0 10 -4 10 -10z"/>
<path d="M6532 4394 c2 -10 12 -20 23 -21 11 -1 30 -5 43 -9 18 -5 22 -2 22
15 0 15 -6 21 -22 21 -13 0 -34 3 -47 7 -19 5 -22 2 -19 -13z"/>
<path d="M6570 4050 c0 -5 5 -10 11 -10 5 0 7 5 4 10 -3 6 -8 10 -11 10 -2 0
-4 -4 -4 -10z"/>
<path d="M8988 3436 c-7 -14 -33 -64 -58 -113 -25 -48 -50 -93 -57 -100 -6 -7
-29 -41 -49 -75 -21 -35 -43 -67 -49 -73 -6 -5 -20 -23 -30 -40 -10 -16 -22
-34 -27 -40 -4 -5 -29 -37 -55 -70 -90 -116 -290 -327 -365 -387 -21 -16 -38
-36 -38 -44 0 -8 -3 -14 -7 -14 -5 0 -40 -30 -79 -68 -39 -37 -79 -74 -90 -84
-98 -84 -107 -128 -42 -210 24 -29 100 -127 170 -218 71 -91 139 -178 153
-195 13 -16 88 -111 166 -210 292 -373 382 -477 514 -595 123 -109 129 -115
170 -146 44 -34 263 -184 269 -184 2 0 41 -22 87 -48 155 -88 363 -178 455
-196 11 -2 33 -8 49 -12 27 -7 29 -6 16 9 -12 15 -11 17 10 17 13 -1 35 -7 48
-14 23 -13 23 -14 5 -24 -14 -8 -1 -10 57 -7 90 3 129 13 108 26 -8 5 -33 9
-56 9 -36 0 -43 3 -43 20 0 13 7 20 20 20 13 0 20 7 20 19 0 22 -50 51 -87 51
-30 0 -42 29 -19 45 9 7 37 16 61 20 53 7 60 31 21 70 l-25 24 0 461 c0 504
-5 462 54 464 14 1 20 8 20 26 0 22 -4 25 -29 22 -40 -4 -49 16 -19 45 26 27
26 50 -1 45 -36 -6 -25 50 17 92 18 18 23 46 8 46 -5 0 -11 9 -14 20 -3 11
-16 24 -29 29 -29 12 -70 56 -67 73 4 33 -1 39 -18 23 -16 -16 -17 -16 -30 1
-17 23 -16 34 2 34 18 0 10 24 -24 68 -14 17 -32 30 -39 27 -9 -3 -11 1 -7 15
3 11 1 25 -5 32 -42 51 -58 71 -80 103 -26 37 -59 81 -120 155 -19 24 -48 64
-64 89 -15 25 -58 84 -95 131 -36 46 -93 121 -126 166 -105 143 -304 401 -320
414 -8 7 -15 17 -15 22 0 8 -80 118 -120 165 -5 7 -10 15 -10 18 0 9 -63 75
-72 75 -4 0 -13 -11 -20 -24z m1202 -3070 c0 -9 -30 -14 -35 -6 -4 6 3 10 14
10 12 0 21 -2 21 -4z"/>
<path d="M7860 2235 c-9 -11 -10 -15 -1 -15 7 0 19 7 27 15 13 13 13 15 1 15
-8 0 -20 -7 -27 -15z"/>
<path d="M7728 2083 c7 -3 16 -2 19 1 4 3 -2 6 -13 5 -11 0 -14 -3 -6 -6z"/>
<path d="M7760 2059 c0 -5 5 -7 10 -4 6 3 10 8 10 11 0 2 -4 4 -10 4 -5 0 -10
-5 -10 -11z"/>
<path d="M10247 1713 c-22 -6 -12 -23 14 -23 10 0 19 7 19 15 0 15 -2 16 -33
8z"/>
<path d="M10218 273 c7 -3 16 -2 19 1 4 3 -2 6 -13 5 -11 0 -14 -3 -6 -6z"/>
</g>
</svg>
