<?xml version="1.0" encoding="utf-8"?>
<!-- Generator: Adobe Illustrator 26.1.0, SVG Export Plug-In . SVG Version: 6.00 Build 0)  -->
<svg version="1.1" id="Calque_1" xmlns="http://www.w3.org/2000/svg" xmlns:xlink="http://www.w3.org/1999/xlink" x="0px" y="0px"
	 viewBox="0 0 1366 768" style="enable-background:new 0 0 1366 768;" xml:space="preserve">
<style type="text/css">
	.st0{fill:#ED7F67;}
	.st1{fill:url(#SVGID_1_);}
	.st2{fill:url(#SVGID_00000005960995189677198770000001873905382163468701_);}
	.st3{fill:url(#SVGID_00000167374679685458425110000008203084365036069551_);}
	.st4{fill:#206681;}
</style>
<circle class="st0" cx="796.66" cy="185.4" r="18.4"/>
<linearGradient id="SVGID_1_" gradientUnits="userSpaceOnUse" x1="558.5115" y1="357.1328" x2="698.7054" y2="357.1328">
	<stop  offset="0" style="stop-color:#EFB97A"/>
	<stop  offset="0.9995" style="stop-color:#ED7F67"/>
</linearGradient>
<path class="st1" d="M698.71,364.22l-39.55,57.56l-0.62-0.8l-0.24-0.3c-1.17-1.83-2.5-3.56-3.99-5.16l-0.13-0.13l-4.1-5.28
	l-4.23-5.44l-4.23-5.44l-4.23-5.42l-4.23-5.44l-4.23-5.42l-4.23-5.44l-4.23-5.44l-4.23-5.42l-4.23-5.44l-4.23-5.44l-4.23-5.42
	l-4.23-5.44l-4.23-5.42l-4.23-5.44l-4.23-5.44l-4.23-5.42l-4.23-5.42l-8.46-10.89l-4.23-5.42l-4.23-5.44l-2.7-3.47h36.55
	c1.42,0.02,2.81,0.07,4.23,0.13c1.42,0.07,2.81,0.19,4.23,0.32c1.42,0.13,2.81,0.3,4.23,0.5c1.42,0.21,2.83,0.43,4.23,0.67
	c1.42,0.26,2.83,0.56,4.23,0.88c1.42,0.32,2.83,0.67,4.23,1.06c1.42,0.37,2.83,0.8,4.23,1.25c1.42,0.47,2.83,0.95,4.23,1.45
	c1.42,0.54,2.83,1.1,4.23,1.68c1.42,0.6,2.83,1.25,4.23,1.92c1.42,0.67,2.83,1.38,4.23,2.13c1.42,0.76,2.83,1.57,4.23,2.39
	c1.42,0.88,2.85,1.77,4.23,2.68c1.44,0.97,2.85,1.96,4.23,2.98c1.44,1.08,2.85,2.18,4.23,3.32c1.44,1.19,2.85,2.44,4.23,3.71
	c1.45,1.34,2.87,2.74,4.23,4.18c1.45,1.53,2.87,3.09,4.23,4.72c0.99,1.19,1.98,2.39,2.91,3.63l1.32,1.71l4.23,5.54l4.23,5.54
	l4.23,5.55l4.23,5.52l4.23,5.55L698.71,364.22z"/>
<linearGradient id="SVGID_00000093883587095024949460000014491538115171228344_" gradientUnits="userSpaceOnUse" x1="705.9382" y1="496.6653" x2="852.041" y2="496.6653">
	<stop  offset="0" style="stop-color:#EFB97A"/>
	<stop  offset="0.9995" style="stop-color:#ED7F67"/>
</linearGradient>
<path style="fill:url(#SVGID_00000093883587095024949460000014491538115171228344_);" d="M852.04,565.01H826.6
	c-1.01,0-2.03-0.02-3.04-0.06c-1.42-0.04-2.81-0.09-4.23-0.17c-1.42-0.11-2.81-0.21-4.23-0.35c-1.42-0.15-2.81-0.3-4.23-0.5
	c-1.42-0.19-2.83-0.39-4.23-0.63c-1.42-0.26-2.83-0.54-4.23-0.84c-1.42-0.3-2.83-0.63-4.23-0.99c-1.42-0.35-2.83-0.75-4.23-1.16
	c-1.42-0.41-2.83-0.88-4.23-1.34c-1.42-0.48-2.83-0.99-4.23-1.53c-1.42-0.54-2.83-1.12-4.23-1.72c-1.42-0.61-2.83-1.25-4.23-1.92
	c-1.42-0.69-2.83-1.4-4.23-2.14c-1.42-0.76-2.83-1.57-4.23-2.39c-1.44-0.84-2.83-1.71-4.23-2.61c-1.44-0.93-2.85-1.88-4.23-2.89
	c-1.44-1.03-2.83-2.09-4.23-3.19c-1.44-1.14-2.85-2.31-4.23-3.5c-1.44-1.25-2.85-2.53-4.23-3.86c-1.45-1.4-2.85-2.83-4.23-4.31
	c-1.45-1.55-2.85-3.15-4.23-4.79c-0.89-1.06-1.81-2.16-2.67-3.28l-1.57-1.99l-4.23-5.44l-4.23-5.44l-4.23-5.42l-4.23-5.44
	l-4.23-5.44l-4.23-5.44l-2.44-3.13c-0.3-0.84-0.6-1.64-0.93-2.44c6.51-6.19,13.25-12.99,20.32-20.47
	c9.3-9.86,16.27-20.67,21.4-31.86l3.97,5.2l4.23,5.54l4.23,5.54l4.23,5.55l4.23,5.52l4.23,5.55l4.23,5.54l4.23,5.55l4.23,5.52
	l4.23,5.55l4.23,5.54l4.23,5.54l4.23,5.55l4.23,5.54l4.23,5.54l4.23,5.54l4.23,5.55l4.23,5.54l4.23,5.54l4.23,5.54l4.23,5.55
	l4.23,5.54l4.23,5.54l4.23,5.54L852.04,565.01z"/>
<linearGradient id="SVGID_00000156579640055089403000000003299355365741599163_" gradientUnits="userSpaceOnUse" x1="579.4819" y1="421.5726" x2="760.6238" y2="421.5726">
	<stop  offset="0" style="stop-color:#EFB97A"/>
	<stop  offset="0.9995" style="stop-color:#ED7F67"/>
</linearGradient>
<path style="fill:url(#SVGID_00000156579640055089403000000003299355365741599163_);" d="M747.66,428.32
	c-5.13,11.18-12.1,22-21.4,31.86c-7.06,7.47-13.81,14.28-20.32,20.47c-45.71,43.38-79.89,56.31-126.46,57.1l79.67-115.96
	l39.55-57.56l2.54-3.69c0,0,30.63-45.78,51.28-55.12C752.52,305.41,773.66,371.62,747.66,428.32z"/>
<path class="st4" d="M768.26,206.49c-7.46-7.45-17.98,5-23.52,9.26c-8.08,6.2-18.12,10.08-28.3,9.9
	c-23.16-0.41-20.74-17.04-66.9-36.71c-27.47-11.7-57.4-17.23-87.17-15.18c-91.68,6.34-165.3,81.3-170.11,173.07
	c-5.22,99.74,69.29,183.22,165.48,192.4l52.61-76.55c-6.32,1.1-12.83,1.67-19.47,1.67c-60.73,0-109.96-47.82-109.96-106.8
	c0-33.51,15.9-63.42,40.76-83l-0.09-0.11h0.22c18.88-14.81,42.9-23.69,69.05-23.69c52.28,0,96.03,35.43,107.2,82.92l0.49,0.64
	l2-2.91c11.96-17.4,27.73-31.37,45.77-41.15c-0.51,0.28-3.89-17.84-3.95-19.32c-0.92-21.07,10.79-35.62,26.07-48.42
	C776.36,215.89,771.96,210.19,768.26,206.49z"/>
</svg>
